<svg xmlns="http://www.w3.org/2000/svg" version="1.1" xmlns:xlink="http://www.w3.org/1999/xlink" xmlns:svgjs="http://svgjs.dev/svgjs" viewBox="0 0 800 800" opacity="0.15" width="800" height="800"><g stroke-width="0.5" stroke="hsla(0, 0%, 53%, 1.00)" fill="none"><rect width="5" height="5" x="-2.5" y="-2.5" transform="rotate(45, 0, 0)"></rect><rect width="5" height="5" x="59.03846153846154" y="-2.5" transform="rotate(45, 61.53846153846154, 0)"></rect><rect width="5" height="5" x="120.57692307692308" y="-2.5" transform="rotate(45, 123.07692307692308, 0)"></rect><rect width="5" height="5" x="182.1153846153846" y="-2.5" transform="rotate(45, 184.6153846153846, 0)"></rect><rect width="5" height="5" x="243.65384615384616" y="-2.5" transform="rotate(45, 246.15384615384616, 0)"></rect><rect width="5" height="5" x="305.1923076923077" y="-2.5" transform="rotate(45, 307.6923076923077, 0)"></rect><rect width="5" height="5" x="366.7307692307692" y="-2.5" transform="rotate(45, 369.2307692307692, 0)"></rect><rect width="5" height="5" x="428.2692307692308" y="-2.5" transform="rotate(45, 430.7692307692308, 0)"></rect><rect width="5" height="5" x="489.8076923076923" y="-2.5" transform="rotate(45, 492.3076923076923, 0)"></rect><rect width="5" height="5" x="551.3461538461538" y="-2.5" transform="rotate(45, 553.8461538461538, 0)"></rect><rect width="5" height="5" x="612.8846153846154" y="-2.5" transform="rotate(45, 615.3846153846154, 0)"></rect><rect width="5" height="5" x="674.4230769230769" y="-2.5" transform="rotate(45, 676.9230769230769, 0)"></rect><rect width="5" height="5" x="735.9615384615385" y="-2.5" transform="rotate(45, 738.4615384615385, 0)"></rect><rect width="5" height="5" x="797.5" y="-2.5" transform="rotate(45, 800, 0)"></rect><rect width="5" height="5" x="-2.5" y="54.642857142857146" transform="rotate(45, 0, 57.142857142857146)"></rect><rect width="5" height="5" x="59.03846153846154" y="54.642857142857146" fill="hsla(0, 0%, 53%, 1.00)" stroke="none" transform="rotate(45, 61.53846153846154, 57.142857142857146)"></rect><rect width="5" height="5" x="120.57692307692308" y="54.642857142857146" transform="rotate(45, 123.07692307692308, 57.142857142857146)"></rect><rect width="5" height="5" x="182.1153846153846" y="54.642857142857146" transform="rotate(45, 184.6153846153846, 57.142857142857146)"></rect><rect width="5" height="5" x="243.65384615384616" y="54.642857142857146" transform="rotate(45, 246.15384615384616, 57.142857142857146)"></rect><rect width="5" height="5" x="305.1923076923077" y="54.642857142857146" transform="rotate(45, 307.6923076923077, 57.142857142857146)"></rect><rect width="5" height="5" x="366.7307692307692" y="54.642857142857146" transform="rotate(45, 369.2307692307692, 57.142857142857146)"></rect><rect width="5" height="5" x="428.2692307692308" y="54.642857142857146" transform="rotate(45, 430.7692307692308, 57.142857142857146)"></rect><rect width="5" height="5" x="489.8076923076923" y="54.642857142857146" fill="hsla(0, 0%, 53%, 1.00)" stroke="none" transform="rotate(45, 492.3076923076923, 57.142857142857146)"></rect><rect width="5" height="5" x="551.3461538461538" y="54.642857142857146" transform="rotate(45, 553.8461538461538, 57.142857142857146)"></rect><rect width="5" height="5" x="612.8846153846154" y="54.642857142857146" fill="hsla(0, 0%, 53%, 1.00)" stroke="none" transform="rotate(45, 615.3846153846154, 57.142857142857146)"></rect><rect width="5" height="5" x="674.4230769230769" y="54.642857142857146" transform="rotate(45, 676.9230769230769, 57.142857142857146)"></rect><rect width="5" height="5" x="735.9615384615385" y="54.642857142857146" transform="rotate(45, 738.4615384615385, 57.142857142857146)"></rect><rect width="5" height="5" x="797.5" y="54.642857142857146" transform="rotate(45, 800, 57.142857142857146)"></rect><rect width="5" height="5" x="-2.5" y="111.78571428571429" transform="rotate(45, 0, 114.28571428571429)"></rect><rect width="5" height="5" x="59.03846153846154" y="111.78571428571429" transform="rotate(45, 61.53846153846154, 114.28571428571429)"></rect><rect width="5" height="5" x="120.57692307692308" y="111.78571428571429" transform="rotate(45, 123.07692307692308, 114.28571428571429)"></rect><rect width="5" height="5" x="182.1153846153846" y="111.78571428571429" transform="rotate(45, 184.6153846153846, 114.28571428571429)"></rect><rect width="5" height="5" x="243.65384615384616" y="111.78571428571429" transform="rotate(45, 246.15384615384616, 114.28571428571429)"></rect><rect width="5" height="5" x="305.1923076923077" y="111.78571428571429" fill="hsla(0, 0%, 53%, 1.00)" stroke="none" transform="rotate(45, 307.6923076923077, 114.28571428571429)"></rect><rect width="5" height="5" x="366.7307692307692" y="111.78571428571429" transform="rotate(45, 369.2307692307692, 114.28571428571429)"></rect><rect width="5" height="5" x="428.2692307692308" y="111.78571428571429" transform="rotate(45, 430.7692307692308, 114.28571428571429)"></rect><rect width="5" height="5" x="489.8076923076923" y="111.78571428571429" transform="rotate(45, 492.3076923076923, 114.28571428571429)"></rect><rect width="5" height="5" x="551.3461538461538" y="111.78571428571429" transform="rotate(45, 553.8461538461538, 114.28571428571429)"></rect><rect width="5" height="5" x="612.8846153846154" y="111.78571428571429" fill="hsla(0, 0%, 53%, 1.00)" stroke="none" transform="rotate(45, 615.3846153846154, 114.28571428571429)"></rect><rect width="5" height="5" x="674.4230769230769" y="111.78571428571429" transform="rotate(45, 676.9230769230769, 114.28571428571429)"></rect><rect width="5" height="5" x="735.9615384615385" y="111.78571428571429" transform="rotate(45, 738.4615384615385, 114.28571428571429)"></rect><rect width="5" height="5" x="797.5" y="111.78571428571429" transform="rotate(45, 800, 114.28571428571429)"></rect><rect width="5" height="5" x="-2.5" y="168.92857142857144" transform="rotate(45, 0, 171.42857142857144)"></rect><rect width="5" height="5" x="59.03846153846154" y="168.92857142857144" fill="hsla(0, 0%, 53%, 1.00)" stroke="none" transform="rotate(45, 61.53846153846154, 171.42857142857144)"></rect><rect width="5" height="5" x="120.57692307692308" y="168.92857142857144" transform="rotate(45, 123.07692307692308, 171.42857142857144)"></rect><rect width="5" height="5" x="182.1153846153846" y="168.92857142857144" transform="rotate(45, 184.6153846153846, 171.42857142857144)"></rect><rect width="5" height="5" x="243.65384615384616" y="168.92857142857144" transform="rotate(45, 246.15384615384616, 171.42857142857144)"></rect><rect width="5" height="5" x="305.1923076923077" y="168.92857142857144" transform="rotate(45, 307.6923076923077, 171.42857142857144)"></rect><rect width="5" height="5" x="366.7307692307692" y="168.92857142857144" fill="hsla(0, 0%, 53%, 1.00)" stroke="none" transform="rotate(45, 369.2307692307692, 171.42857142857144)"></rect><rect width="5" height="5" x="428.2692307692308" y="168.92857142857144" transform="rotate(45, 430.7692307692308, 171.42857142857144)"></rect><rect width="5" height="5" x="489.8076923076923" y="168.92857142857144" fill="hsla(0, 0%, 53%, 1.00)" stroke="none" transform="rotate(45, 492.3076923076923, 171.42857142857144)"></rect><rect width="5" height="5" x="551.3461538461538" y="168.92857142857144" fill="hsla(0, 0%, 53%, 1.00)" stroke="none" transform="rotate(45, 553.8461538461538, 171.42857142857144)"></rect><rect width="5" height="5" x="612.8846153846154" y="168.92857142857144" fill="hsla(0, 0%, 53%, 1.00)" stroke="none" transform="rotate(45, 615.3846153846154, 171.42857142857144)"></rect><rect width="5" height="5" x="674.4230769230769" y="168.92857142857144" transform="rotate(45, 676.9230769230769, 171.42857142857144)"></rect><rect width="5" height="5" x="735.9615384615385" y="168.92857142857144" fill="hsla(0, 0%, 53%, 1.00)" stroke="none" transform="rotate(45, 738.4615384615385, 171.42857142857144)"></rect><rect width="5" height="5" x="797.5" y="168.92857142857144" transform="rotate(45, 800, 171.42857142857144)"></rect><rect width="5" height="5" x="-2.5" y="226.07142857142858" transform="rotate(45, 0, 228.57142857142858)"></rect><rect width="5" height="5" x="59.03846153846154" y="226.07142857142858" transform="rotate(45, 61.53846153846154, 228.57142857142858)"></rect><rect width="5" height="5" x="120.57692307692308" y="226.07142857142858" transform="rotate(45, 123.07692307692308, 228.57142857142858)"></rect><rect width="5" height="5" x="182.1153846153846" y="226.07142857142858" transform="rotate(45, 184.6153846153846, 228.57142857142858)"></rect><rect width="5" height="5" x="243.65384615384616" y="226.07142857142858" transform="rotate(45, 246.15384615384616, 228.57142857142858)"></rect><rect width="5" height="5" x="305.1923076923077" y="226.07142857142858" fill="hsla(0, 0%, 53%, 1.00)" stroke="none" transform="rotate(45, 307.6923076923077, 228.57142857142858)"></rect><rect width="5" height="5" x="366.7307692307692" y="226.07142857142858" transform="rotate(45, 369.2307692307692, 228.57142857142858)"></rect><rect width="5" height="5" x="428.2692307692308" y="226.07142857142858" transform="rotate(45, 430.7692307692308, 228.57142857142858)"></rect><rect width="5" height="5" x="489.8076923076923" y="226.07142857142858" transform="rotate(45, 492.3076923076923, 228.57142857142858)"></rect><rect width="5" height="5" x="551.3461538461538" y="226.07142857142858" transform="rotate(45, 553.8461538461538, 228.57142857142858)"></rect><rect width="5" height="5" x="612.8846153846154" y="226.07142857142858" transform="rotate(45, 615.3846153846154, 228.57142857142858)"></rect><rect width="5" height="5" x="674.4230769230769" y="226.07142857142858" fill="hsla(0, 0%, 53%, 1.00)" stroke="none" transform="rotate(45, 676.9230769230769, 228.57142857142858)"></rect><rect width="5" height="5" x="735.9615384615385" y="226.07142857142858" transform="rotate(45, 738.4615384615385, 228.57142857142858)"></rect><rect width="5" height="5" x="797.5" y="226.07142857142858" transform="rotate(45, 800, 228.57142857142858)"></rect><rect width="5" height="5" x="-2.5" y="283.2142857142857" transform="rotate(45, 0, 285.7142857142857)"></rect><rect width="5" height="5" x="59.03846153846154" y="283.2142857142857" transform="rotate(45, 61.53846153846154, 285.7142857142857)"></rect><rect width="5" height="5" x="120.57692307692308" y="283.2142857142857" transform="rotate(45, 123.07692307692308, 285.7142857142857)"></rect><rect width="5" height="5" x="182.1153846153846" y="283.2142857142857" transform="rotate(45, 184.6153846153846, 285.7142857142857)"></rect><rect width="5" height="5" x="243.65384615384616" y="283.2142857142857" transform="rotate(45, 246.15384615384616, 285.7142857142857)"></rect><rect width="5" height="5" x="305.1923076923077" y="283.2142857142857" transform="rotate(45, 307.6923076923077, 285.7142857142857)"></rect><rect width="5" height="5" x="366.7307692307692" y="283.2142857142857" transform="rotate(45, 369.2307692307692, 285.7142857142857)"></rect><rect width="5" height="5" x="428.2692307692308" y="283.2142857142857" transform="rotate(45, 430.7692307692308, 285.7142857142857)"></rect><rect width="5" height="5" x="489.8076923076923" y="283.2142857142857" transform="rotate(45, 492.3076923076923, 285.7142857142857)"></rect><rect width="5" height="5" x="551.3461538461538" y="283.2142857142857" transform="rotate(45, 553.8461538461538, 285.7142857142857)"></rect><rect width="5" height="5" x="612.8846153846154" y="283.2142857142857" transform="rotate(45, 615.3846153846154, 285.7142857142857)"></rect><rect width="5" height="5" x="674.4230769230769" y="283.2142857142857" transform="rotate(45, 676.9230769230769, 285.7142857142857)"></rect><rect width="5" height="5" x="735.9615384615385" y="283.2142857142857" transform="rotate(45, 738.4615384615385, 285.7142857142857)"></rect><rect width="5" height="5" x="797.5" y="283.2142857142857" transform="rotate(45, 800, 285.7142857142857)"></rect><rect width="5" height="5" x="-2.5" y="340.3571428571429" transform="rotate(45, 0, 342.8571428571429)"></rect><rect width="5" height="5" x="59.03846153846154" y="340.3571428571429" fill="hsla(0, 0%, 53%, 1.00)" stroke="none" transform="rotate(45, 61.53846153846154, 342.8571428571429)"></rect><rect width="5" height="5" x="120.57692307692308" y="340.3571428571429" transform="rotate(45, 123.07692307692308, 342.8571428571429)"></rect><rect width="5" height="5" x="182.1153846153846" y="340.3571428571429" fill="hsla(0, 0%, 53%, 1.00)" stroke="none" transform="rotate(45, 184.6153846153846, 342.8571428571429)"></rect><rect width="5" height="5" x="243.65384615384616" y="340.3571428571429" transform="rotate(45, 246.15384615384616, 342.8571428571429)"></rect><rect width="5" height="5" x="305.1923076923077" y="340.3571428571429" transform="rotate(45, 307.6923076923077, 342.8571428571429)"></rect><rect width="5" height="5" x="366.7307692307692" y="340.3571428571429" transform="rotate(45, 369.2307692307692, 342.8571428571429)"></rect><rect width="5" height="5" x="428.2692307692308" y="340.3571428571429" transform="rotate(45, 430.7692307692308, 342.8571428571429)"></rect><rect width="5" height="5" x="489.8076923076923" y="340.3571428571429" fill="hsla(0, 0%, 53%, 1.00)" stroke="none" transform="rotate(45, 492.3076923076923, 342.8571428571429)"></rect><rect width="5" height="5" x="551.3461538461538" y="340.3571428571429" transform="rotate(45, 553.8461538461538, 342.8571428571429)"></rect><rect width="5" height="5" x="612.8846153846154" y="340.3571428571429" transform="rotate(45, 615.3846153846154, 342.8571428571429)"></rect><rect width="5" height="5" x="674.4230769230769" y="340.3571428571429" transform="rotate(45, 676.9230769230769, 342.8571428571429)"></rect><rect width="5" height="5" x="735.9615384615385" y="340.3571428571429" fill="hsla(0, 0%, 53%, 1.00)" stroke="none" transform="rotate(45, 738.4615384615385, 342.8571428571429)"></rect><rect width="5" height="5" x="797.5" y="340.3571428571429" transform="rotate(45, 800, 342.8571428571429)"></rect><rect width="5" height="5" x="-2.5" y="397.50000000000006" transform="rotate(45, 0, 400.00000000000006)"></rect><rect width="5" height="5" x="59.03846153846154" y="397.50000000000006" transform="rotate(45, 61.53846153846154, 400.00000000000006)"></rect><rect width="5" height="5" x="120.57692307692308" y="397.50000000000006" transform="rotate(45, 123.07692307692308, 400.00000000000006)"></rect><rect width="5" height="5" x="182.1153846153846" y="397.50000000000006" transform="rotate(45, 184.6153846153846, 400.00000000000006)"></rect><rect width="5" height="5" x="243.65384615384616" y="397.50000000000006" transform="rotate(45, 246.15384615384616, 400.00000000000006)"></rect><rect width="5" height="5" x="305.1923076923077" y="397.50000000000006" transform="rotate(45, 307.6923076923077, 400.00000000000006)"></rect><rect width="5" height="5" x="366.7307692307692" y="397.50000000000006" transform="rotate(45, 369.2307692307692, 400.00000000000006)"></rect><rect width="5" height="5" x="428.2692307692308" y="397.50000000000006" fill="hsla(0, 0%, 53%, 1.00)" stroke="none" transform="rotate(45, 430.7692307692308, 400.00000000000006)"></rect><rect width="5" height="5" x="489.8076923076923" y="397.50000000000006" transform="rotate(45, 492.3076923076923, 400.00000000000006)"></rect><rect width="5" height="5" x="551.3461538461538" y="397.50000000000006" transform="rotate(45, 553.8461538461538, 400.00000000000006)"></rect><rect width="5" height="5" x="612.8846153846154" y="397.50000000000006" transform="rotate(45, 615.3846153846154, 400.00000000000006)"></rect><rect width="5" height="5" x="674.4230769230769" y="397.50000000000006" transform="rotate(45, 676.9230769230769, 400.00000000000006)"></rect><rect width="5" height="5" x="735.9615384615385" y="397.50000000000006" fill="hsla(0, 0%, 53%, 1.00)" stroke="none" transform="rotate(45, 738.4615384615385, 400.00000000000006)"></rect><rect width="5" height="5" x="797.5" y="397.50000000000006" transform="rotate(45, 800, 400.00000000000006)"></rect><rect width="5" height="5" x="-2.5" y="454.6428571428572" transform="rotate(45, 0, 457.1428571428572)"></rect><rect width="5" height="5" x="59.03846153846154" y="454.6428571428572" transform="rotate(45, 61.53846153846154, 457.1428571428572)"></rect><rect width="5" height="5" x="120.57692307692308" y="454.6428571428572" transform="rotate(45, 123.07692307692308, 457.1428571428572)"></rect><rect width="5" height="5" x="182.1153846153846" y="454.6428571428572" transform="rotate(45, 184.6153846153846, 457.1428571428572)"></rect><rect width="5" height="5" x="243.65384615384616" y="454.6428571428572" transform="rotate(45, 246.15384615384616, 457.1428571428572)"></rect><rect width="5" height="5" x="305.1923076923077" y="454.6428571428572" fill="hsla(0, 0%, 53%, 1.00)" stroke="none" transform="rotate(45, 307.6923076923077, 457.1428571428572)"></rect><rect width="5" height="5" x="366.7307692307692" y="454.6428571428572" transform="rotate(45, 369.2307692307692, 457.1428571428572)"></rect><rect width="5" height="5" x="428.2692307692308" y="454.6428571428572" fill="hsla(0, 0%, 53%, 1.00)" stroke="none" transform="rotate(45, 430.7692307692308, 457.1428571428572)"></rect><rect width="5" height="5" x="489.8076923076923" y="454.6428571428572" transform="rotate(45, 492.3076923076923, 457.1428571428572)"></rect><rect width="5" height="5" x="551.3461538461538" y="454.6428571428572" transform="rotate(45, 553.8461538461538, 457.1428571428572)"></rect><rect width="5" height="5" x="612.8846153846154" y="454.6428571428572" fill="hsla(0, 0%, 53%, 1.00)" stroke="none" transform="rotate(45, 615.3846153846154, 457.1428571428572)"></rect><rect width="5" height="5" x="674.4230769230769" y="454.6428571428572" transform="rotate(45, 676.9230769230769, 457.1428571428572)"></rect><rect width="5" height="5" x="735.9615384615385" y="454.6428571428572" transform="rotate(45, 738.4615384615385, 457.1428571428572)"></rect><rect width="5" height="5" x="797.5" y="454.6428571428572" transform="rotate(45, 800, 457.1428571428572)"></rect><rect width="5" height="5" x="-2.5" y="511.78571428571433" transform="rotate(45, 0, 514.2857142857143)"></rect><rect width="5" height="5" x="59.03846153846154" y="511.78571428571433" transform="rotate(45, 61.53846153846154, 514.2857142857143)"></rect><rect width="5" height="5" x="120.57692307692308" y="511.78571428571433" transform="rotate(45, 123.07692307692308, 514.2857142857143)"></rect><rect width="5" height="5" x="182.1153846153846" y="511.78571428571433" fill="hsla(0, 0%, 53%, 1.00)" stroke="none" transform="rotate(45, 184.6153846153846, 514.2857142857143)"></rect><rect width="5" height="5" x="243.65384615384616" y="511.78571428571433" transform="rotate(45, 246.15384615384616, 514.2857142857143)"></rect><rect width="5" height="5" x="305.1923076923077" y="511.78571428571433" transform="rotate(45, 307.6923076923077, 514.2857142857143)"></rect><rect width="5" height="5" x="366.7307692307692" y="511.78571428571433" fill="hsla(0, 0%, 53%, 1.00)" stroke="none" transform="rotate(45, 369.2307692307692, 514.2857142857143)"></rect><rect width="5" height="5" x="428.2692307692308" y="511.78571428571433" transform="rotate(45, 430.7692307692308, 514.2857142857143)"></rect><rect width="5" height="5" x="489.8076923076923" y="511.78571428571433" transform="rotate(45, 492.3076923076923, 514.2857142857143)"></rect><rect width="5" height="5" x="551.3461538461538" y="511.78571428571433" transform="rotate(45, 553.8461538461538, 514.2857142857143)"></rect><rect width="5" height="5" x="612.8846153846154" y="511.78571428571433" transform="rotate(45, 615.3846153846154, 514.2857142857143)"></rect><rect width="5" height="5" x="674.4230769230769" y="511.78571428571433" transform="rotate(45, 676.9230769230769, 514.2857142857143)"></rect><rect width="5" height="5" x="735.9615384615385" y="511.78571428571433" transform="rotate(45, 738.4615384615385, 514.2857142857143)"></rect><rect width="5" height="5" x="797.5" y="511.78571428571433" transform="rotate(45, 800, 514.2857142857143)"></rect><rect width="5" height="5" x="-2.5" y="568.9285714285714" transform="rotate(45, 0, 571.4285714285714)"></rect><rect width="5" height="5" x="59.03846153846154" y="568.9285714285714" transform="rotate(45, 61.53846153846154, 571.4285714285714)"></rect><rect width="5" height="5" x="120.57692307692308" y="568.9285714285714" fill="hsla(0, 0%, 53%, 1.00)" stroke="none" transform="rotate(45, 123.07692307692308, 571.4285714285714)"></rect><rect width="5" height="5" x="182.1153846153846" y="568.9285714285714" transform="rotate(45, 184.6153846153846, 571.4285714285714)"></rect><rect width="5" height="5" x="243.65384615384616" y="568.9285714285714" fill="hsla(0, 0%, 53%, 1.00)" stroke="none" transform="rotate(45, 246.15384615384616, 571.4285714285714)"></rect><rect width="5" height="5" x="305.1923076923077" y="568.9285714285714" transform="rotate(45, 307.6923076923077, 571.4285714285714)"></rect><rect width="5" height="5" x="366.7307692307692" y="568.9285714285714" transform="rotate(45, 369.2307692307692, 571.4285714285714)"></rect><rect width="5" height="5" x="428.2692307692308" y="568.9285714285714" transform="rotate(45, 430.7692307692308, 571.4285714285714)"></rect><rect width="5" height="5" x="489.8076923076923" y="568.9285714285714" fill="hsla(0, 0%, 53%, 1.00)" stroke="none" transform="rotate(45, 492.3076923076923, 571.4285714285714)"></rect><rect width="5" height="5" x="551.3461538461538" y="568.9285714285714" transform="rotate(45, 553.8461538461538, 571.4285714285714)"></rect><rect width="5" height="5" x="612.8846153846154" y="568.9285714285714" fill="hsla(0, 0%, 53%, 1.00)" stroke="none" transform="rotate(45, 615.3846153846154, 571.4285714285714)"></rect><rect width="5" height="5" x="674.4230769230769" y="568.9285714285714" transform="rotate(45, 676.9230769230769, 571.4285714285714)"></rect><rect width="5" height="5" x="735.9615384615385" y="568.9285714285714" transform="rotate(45, 738.4615384615385, 571.4285714285714)"></rect><rect width="5" height="5" x="797.5" y="568.9285714285714" transform="rotate(45, 800, 571.4285714285714)"></rect><rect width="5" height="5" x="-2.5" y="626.0714285714286" transform="rotate(45, 0, 628.5714285714286)"></rect><rect width="5" height="5" x="59.03846153846154" y="626.0714285714286" fill="hsla(0, 0%, 53%, 1.00)" stroke="none" transform="rotate(45, 61.53846153846154, 628.5714285714286)"></rect><rect width="5" height="5" x="120.57692307692308" y="626.0714285714286" transform="rotate(45, 123.07692307692308, 628.5714285714286)"></rect><rect width="5" height="5" x="182.1153846153846" y="626.0714285714286" transform="rotate(45, 184.6153846153846, 628.5714285714286)"></rect><rect width="5" height="5" x="243.65384615384616" y="626.0714285714286" transform="rotate(45, 246.15384615384616, 628.5714285714286)"></rect><rect width="5" height="5" x="305.1923076923077" y="626.0714285714286" transform="rotate(45, 307.6923076923077, 628.5714285714286)"></rect><rect width="5" height="5" x="366.7307692307692" y="626.0714285714286" fill="hsla(0, 0%, 53%, 1.00)" stroke="none" transform="rotate(45, 369.2307692307692, 628.5714285714286)"></rect><rect width="5" height="5" x="428.2692307692308" y="626.0714285714286" transform="rotate(45, 430.7692307692308, 628.5714285714286)"></rect><rect width="5" height="5" x="489.8076923076923" y="626.0714285714286" fill="hsla(0, 0%, 53%, 1.00)" stroke="none" transform="rotate(45, 492.3076923076923, 628.5714285714286)"></rect><rect width="5" height="5" x="551.3461538461538" y="626.0714285714286" transform="rotate(45, 553.8461538461538, 628.5714285714286)"></rect><rect width="5" height="5" x="612.8846153846154" y="626.0714285714286" transform="rotate(45, 615.3846153846154, 628.5714285714286)"></rect><rect width="5" height="5" x="674.4230769230769" y="626.0714285714286" transform="rotate(45, 676.9230769230769, 628.5714285714286)"></rect><rect width="5" height="5" x="735.9615384615385" y="626.0714285714286" transform="rotate(45, 738.4615384615385, 628.5714285714286)"></rect><rect width="5" height="5" x="797.5" y="626.0714285714286" transform="rotate(45, 800, 628.5714285714286)"></rect><rect width="5" height="5" x="-2.5" y="683.2142857142857" transform="rotate(45, 0, 685.7142857142857)"></rect><rect width="5" height="5" x="59.03846153846154" y="683.2142857142857" transform="rotate(45, 61.53846153846154, 685.7142857142857)"></rect><rect width="5" height="5" x="120.57692307692308" y="683.2142857142857" transform="rotate(45, 123.07692307692308, 685.7142857142857)"></rect><rect width="5" height="5" x="182.1153846153846" y="683.2142857142857" transform="rotate(45, 184.6153846153846, 685.7142857142857)"></rect><rect width="5" height="5" x="243.65384615384616" y="683.2142857142857" transform="rotate(45, 246.15384615384616, 685.7142857142857)"></rect><rect width="5" height="5" x="305.1923076923077" y="683.2142857142857" transform="rotate(45, 307.6923076923077, 685.7142857142857)"></rect><rect width="5" height="5" x="366.7307692307692" y="683.2142857142857" transform="rotate(45, 369.2307692307692, 685.7142857142857)"></rect><rect width="5" height="5" x="428.2692307692308" y="683.2142857142857" fill="hsla(0, 0%, 53%, 1.00)" stroke="none" transform="rotate(45, 430.7692307692308, 685.7142857142857)"></rect><rect width="5" height="5" x="489.8076923076923" y="683.2142857142857" fill="hsla(0, 0%, 53%, 1.00)" stroke="none" transform="rotate(45, 492.3076923076923, 685.7142857142857)"></rect><rect width="5" height="5" x="551.3461538461538" y="683.2142857142857" transform="rotate(45, 553.8461538461538, 685.7142857142857)"></rect><rect width="5" height="5" x="612.8846153846154" y="683.2142857142857" transform="rotate(45, 615.3846153846154, 685.7142857142857)"></rect><rect width="5" height="5" x="674.4230769230769" y="683.2142857142857" transform="rotate(45, 676.9230769230769, 685.7142857142857)"></rect><rect width="5" height="5" x="735.9615384615385" y="683.2142857142857" transform="rotate(45, 738.4615384615385, 685.7142857142857)"></rect><rect width="5" height="5" x="797.5" y="683.2142857142857" transform="rotate(45, 800, 685.7142857142857)"></rect><rect width="5" height="5" x="-2.5" y="740.3571428571428" transform="rotate(45, 0, 742.8571428571428)"></rect><rect width="5" height="5" x="59.03846153846154" y="740.3571428571428" transform="rotate(45, 61.53846153846154, 742.8571428571428)"></rect><rect width="5" height="5" x="120.57692307692308" y="740.3571428571428" transform="rotate(45, 123.07692307692308, 742.8571428571428)"></rect><rect width="5" height="5" x="182.1153846153846" y="740.3571428571428" transform="rotate(45, 184.6153846153846, 742.8571428571428)"></rect><rect width="5" height="5" x="243.65384615384616" y="740.3571428571428" fill="hsla(0, 0%, 53%, 1.00)" stroke="none" transform="rotate(45, 246.15384615384616, 742.8571428571428)"></rect><rect width="5" height="5" x="305.1923076923077" y="740.3571428571428" transform="rotate(45, 307.6923076923077, 742.8571428571428)"></rect><rect width="5" height="5" x="366.7307692307692" y="740.3571428571428" transform="rotate(45, 369.2307692307692, 742.8571428571428)"></rect><rect width="5" height="5" x="428.2692307692308" y="740.3571428571428" transform="rotate(45, 430.7692307692308, 742.8571428571428)"></rect><rect width="5" height="5" x="489.8076923076923" y="740.3571428571428" transform="rotate(45, 492.3076923076923, 742.8571428571428)"></rect><rect width="5" height="5" x="551.3461538461538" y="740.3571428571428" fill="hsla(0, 0%, 53%, 1.00)" stroke="none" transform="rotate(45, 553.8461538461538, 742.8571428571428)"></rect><rect width="5" height="5" x="612.8846153846154" y="740.3571428571428" transform="rotate(45, 615.3846153846154, 742.8571428571428)"></rect><rect width="5" height="5" x="674.4230769230769" y="740.3571428571428" fill="hsla(0, 0%, 53%, 1.00)" stroke="none" transform="rotate(45, 676.9230769230769, 742.8571428571428)"></rect><rect width="5" height="5" x="735.9615384615385" y="740.3571428571428" transform="rotate(45, 738.4615384615385, 742.8571428571428)"></rect><rect width="5" height="5" x="797.5" y="740.3571428571428" transform="rotate(45, 800, 742.8571428571428)"></rect><rect width="5" height="5" x="-2.5" y="797.4999999999999" transform="rotate(45, 0, 799.9999999999999)"></rect><rect width="5" height="5" x="59.03846153846154" y="797.4999999999999" transform="rotate(45, 61.53846153846154, 799.9999999999999)"></rect><rect width="5" height="5" x="120.57692307692308" y="797.4999999999999" transform="rotate(45, 123.07692307692308, 799.9999999999999)"></rect><rect width="5" height="5" x="182.1153846153846" y="797.4999999999999" transform="rotate(45, 184.6153846153846, 799.9999999999999)"></rect><rect width="5" height="5" x="243.65384615384616" y="797.4999999999999" transform="rotate(45, 246.15384615384616, 799.9999999999999)"></rect><rect width="5" height="5" x="305.1923076923077" y="797.4999999999999" transform="rotate(45, 307.6923076923077, 799.9999999999999)"></rect><rect width="5" height="5" x="366.7307692307692" y="797.4999999999999" transform="rotate(45, 369.2307692307692, 799.9999999999999)"></rect><rect width="5" height="5" x="428.2692307692308" y="797.4999999999999" transform="rotate(45, 430.7692307692308, 799.9999999999999)"></rect><rect width="5" height="5" x="489.8076923076923" y="797.4999999999999" transform="rotate(45, 492.3076923076923, 799.9999999999999)"></rect><rect width="5" height="5" x="551.3461538461538" y="797.4999999999999" transform="rotate(45, 553.8461538461538, 799.9999999999999)"></rect><rect width="5" height="5" x="612.8846153846154" y="797.4999999999999" transform="rotate(45, 615.3846153846154, 799.9999999999999)"></rect><rect width="5" height="5" x="674.4230769230769" y="797.4999999999999" transform="rotate(45, 676.9230769230769, 799.9999999999999)"></rect><rect width="5" height="5" x="735.9615384615385" y="797.4999999999999" transform="rotate(45, 738.4615384615385, 799.9999999999999)"></rect><rect width="5" height="5" x="797.5" y="797.4999999999999" transform="rotate(45, 800, 799.9999999999999)"></rect></g></svg>